<?xml version="1.0" standalone="no"?><!DOCTYPE svg PUBLIC "-//W3C//DTD SVG 1.1//EN" "http://www.w3.org/Graphics/SVG/1.1/DTD/svg11.dtd"><svg t="1497260672778" class="icon" style="" viewBox="0 0 1024 1024" version="1.1" xmlns="http://www.w3.org/2000/svg" p-id="2372" xmlns:xlink="http://www.w3.org/1999/xlink" width="16" height="16"><defs><style type="text/css"></style></defs><path d="M244.139 758.544c0 34.401 27.182 62.411 60.597 62.411h43.748c-1.467 5.181-2.29 10.711-2.29 16.371v124.754c0 32.62 25.722 59.103 57.42 59.103 31.726 0 57.413-26.483 57.413-59.103v-124.754c0-5.691-0.858-11.193-2.29-16.371h106.636c-1.46 5.181-2.29 10.711-2.29 16.371v124.754c0 32.62 25.722 59.103 57.419 59.103 31.698 0 57.42-26.483 57.42-59.103v-124.754c0-5.691-0.823-11.193-2.32-16.371h43.744c33.45 0 60.602-28.012 60.602-62.411v-433.341h-535.871v433.341h0.062zM148.41 325.202c-31.73 0-57.419 26.453-57.419 59.073v252.754c0 32.619 25.687 59.073 57.419 59.073 31.698 0 57.42-26.453 57.42-59.073v-252.754c0-32.654-25.722-59.103-57.42-59.103v0.031zM875.673 325.202c-31.697 0-57.385 26.453-57.385 59.073v252.754c0 32.619 25.687 59.073 57.385 59.073s57.391-26.453 57.391-59.073v-252.754c0-32.654-25.692-59.103-57.391-59.103v0.031zM643.808 88.694l45.273-69.91c2.925-4.516 1.717-10.653-2.64-13.641-4.448-3.052-10.362-1.809-13.323 2.735l-25.562 39.485-10.773 16.595-10.907 16.854c-34.593-13.797-73.157-21.524-113.853-21.524-40.692 0-79.26 7.758-113.82 21.524l-21.65-33.45-25.625-39.485c-2.926-4.517-8.868-5.754-13.289-2.735-4.355 3.023-5.564 9.125-2.64 13.641l45.274 69.91c-81.2 38.916-136.17 112.708-136.17 197.116h535.843c0-84.407-54.94-158.169-136.14-197.081v-0.035zM397.22 206.997c-15.862 0-28.709-13.259-28.709-29.533 0-16.281 12.847-29.506 28.709-29.506 15.835 0 28.709 13.196 28.709 29.506 0 16.31-12.875 29.533-28.709 29.533v0zM626.892 206.997c-15.865 0-28.706-13.259-28.706-29.533 0-16.281 12.841-29.506 28.706-29.506 15.869 0 28.678 13.196 28.678 29.506 0 16.31-12.846 29.533-28.678 29.533v0zM626.892 206.997z" p-id="2373" fill="#89c879"></path><path d="M246.254 758.218c0 34.401 27.182 62.411 60.597 62.411h43.748c-1.467 5.181-2.29 10.711-2.29 16.371v124.754c0 32.62 25.722 59.103 57.42 59.103 31.726 0 57.413-26.483 57.413-59.103v-124.754c0-5.691-0.858-11.193-2.29-16.371h106.636c-1.46 5.181-2.29 10.711-2.29 16.371v124.754c0 32.62 25.722 59.103 57.419 59.103 31.698 0 57.42-26.483 57.42-59.103v-124.754c0-5.691-0.823-11.193-2.32-16.371h43.744c33.45 0 60.602-28.012 60.602-62.411v-433.341h-535.871v433.341h0.062zM150.525 324.876c-31.73 0-57.419 26.453-57.419 59.073v252.754c0 32.619 25.687 59.073 57.419 59.073 31.698 0 57.42-26.453 57.42-59.073v-252.754c0-32.654-25.722-59.103-57.42-59.103v0.031zM877.786 324.876c-31.697 0-57.385 26.453-57.385 59.073v252.754c0 32.619 25.687 59.073 57.385 59.073s57.391-26.453 57.391-59.073v-252.754c0-32.654-25.692-59.103-57.391-59.103v0.031zM645.923 88.368l45.273-69.91c2.925-4.516 1.717-10.653-2.64-13.641-4.448-3.052-10.362-1.809-13.323 2.735l-25.562 39.485-10.773 16.595-10.907 16.854c-34.593-13.797-73.157-21.524-113.853-21.524-40.692 0-79.26 7.758-113.82 21.524l-21.65-33.45-25.625-39.485c-2.926-4.517-8.868-5.754-13.289-2.735-4.355 3.023-5.564 9.125-2.64 13.641l45.274 69.91c-81.2 38.916-136.17 112.708-136.17 197.116h535.843c0-84.407-54.94-158.169-136.14-197.081v-0.035zM399.335 206.671c-15.862 0-28.709-13.259-28.709-29.533 0-16.281 12.847-29.506 28.709-29.506 15.835 0 28.709 13.196 28.709 29.506 0 16.31-12.875 29.533-28.709 29.533v0zM629.007 206.671c-15.865 0-28.706-13.259-28.706-29.533 0-16.281 12.841-29.506 28.706-29.506 15.869 0 28.678 13.196 28.678 29.506 0 16.31-12.846 29.533-28.678 29.533v0zM629.007 206.671z" p-id="2374" fill="#89c879"></path></svg>