<?xml version="1.0" standalone="no"?><!DOCTYPE svg PUBLIC "-//W3C//DTD SVG 1.1//EN" "http://www.w3.org/Graphics/SVG/1.1/DTD/svg11.dtd"><svg t="1497260758359" class="icon" style="" viewBox="0 0 1024 1024" version="1.1" xmlns="http://www.w3.org/2000/svg" p-id="3269" xmlns:xlink="http://www.w3.org/1999/xlink" width="16" height="16"><defs><style type="text/css"></style></defs><path d="M804.99749 544.146417C806.485912 698.993591 947.424043 750.523774 949.066439 751.242323 947.783317 754.78374 926.48349 824.688231 874.696682 896.902343 829.941384 959.313401 783.595014 1021.365186 710.457055 1022.648308 638.499568 1023.93143 615.454695 981.999 533.232231 981.999 451.061092 981.999 425.347326 1021.365186 357.341855 1023.93143 286.821464 1026.497674 233.032986 956.593183 187.918414 894.438748 95.636273 767.255687 25.218532 535.113238 119.861618 378.418368 166.823886 300.558519 250.842721 251.337956 341.94439 250.003509 411.284307 248.823036 476.774859 294.604832 519.066563 294.604832 561.512242 294.604832 641.014487 239.584557 724.622722 247.642564 759.574968 249.028336 857.862121 261.089683 920.940403 349.060534 915.910564 352.191352 803.663043 414.397111 804.99749 544.146417ZM510.597957 235.991815C502.488626 177.122174 532.872957 115.942912 567.568578 77.500574 606.318865 34.233697 671.706767 2.052995 725.700545 0 732.629404 59.947464 707.274912 120.151553 669.859072 163.521079 632.340582 206.736632 570.853371 240.45708 510.597957 235.991815Z" p-id="3270"></path></svg>